# xmcd
#
# Track frame offsets:
#	150
#	10095
#	24108
#	33982
#	48829
#	64598
#	77945
#	93213
#	103274
#	114657
#	124092
#	139116
#	155921
#	170241
#	181095
#	192275
#	205678
#	216798
#	226914
#	240446
#
# Disc length: 3377 seconds
#
# Revision: 0
# Processed by: cddbd v1.5.2PL0 Copyright (c) Steve Scherf et al.
# Submitted via: dBpowerAMP V4.0
#
DISCID=060d2f14
DTITLE=The Lonly Blue Boys - Komplit1
DYEAR=1900
DGENRE=Country
TTITLE0=01 Diggi liggi ló
TTITLE1=02 Kurrjóðaglyðra
TTITLE2=03 Stuð, stuð, stuð
TTITLE3=04 Ást við fyrstu sýn
TTITLE4=05 Syngjum saman lag
TTITLE5=06 Trúðu mér og treystu
TTITLE6=07 Fangi
TTITLE7=08 Allt fullt af engu
TTITLE8=09 Heim í Búðardal
TTITLE9=10 Hani, krummi, hundur, svín
TTITLE10=11 Hvað ég vil
TTITLE11=12 Heim til þín kona
TTITLE12=13 Þetta lag gerir mig óðan
TTITLE13=14 Það blanda allir landa upp til stranda
TTITLE14=15 Kærastan kemur til mína
TTITLE15=16 Harðsnúna Hanna
TTITLE16=17 Kvöl er kvennaárið
TTITLE17=18 Mér líður svo vel
TTITLE18=19 Vont
TTITLE19=20 Villi Sveins
EXTD=
EXTT0=
EXTT1=
EXTT2=
EXTT3=
EXTT4=
EXTT5=
EXTT6=
EXTT7=
EXTT8=
EXTT9=
EXTT10=
EXTT11=
EXTT12=
EXTT13=
EXTT14=
EXTT15=
EXTT16=
EXTT17=
EXTT18=
EXTT19=
PLAYORDER=
